<svg width="31" height="37" viewBox="0 0 31 37" fill="none" xmlns="http://www.w3.org/2000/svg">
<path fill-rule="evenodd" clip-rule="evenodd" d="M0.647789 12.362C0.041687 13.6798 0.041687 15.179 0.041687 18.1773V27.5415C0.041687 31.7056 0.041687 33.7876 1.3353 35.0813C2.62891 36.3749 4.71095 36.3749 8.87502 36.3749H8.97919V25.3333C8.97919 23.5614 10.4156 22.125 12.1875 22.125H18.8125C20.5844 22.125 22.0209 23.5614 22.0209 25.3333V36.3749H22.125C26.2891 36.3749 28.3711 36.3749 29.6647 35.0813C30.9584 33.7876 30.9584 31.7056 30.9584 27.5415V18.1773C30.9584 15.179 30.9584 13.6798 30.3522 12.362C29.7461 11.0442 28.6079 10.0685 26.3313 8.11719L24.123 6.22433L24.123 6.22432C20.0082 2.69733 17.9508 0.933838 15.5 0.933838C13.0493 0.933838 10.9919 2.69733 6.87704 6.22433L6.87703 6.22433L4.6687 8.11719L4.6687 8.11719C2.39216 10.0685 1.25389 11.0442 0.647789 12.362ZM20.0209 36.3749V25.3333C20.0209 24.666 19.4799 24.125 18.8125 24.125H12.1875C11.5202 24.125 10.9792 24.666 10.9792 25.3333V36.3749H20.0209Z" fill="#D1C8DE"/>
</svg>
